<?xml version="1.0" encoding="UTF-8"?>
<svg xmlns="http://www.w3.org/2000/svg" xmlns:xlink="http://www.w3.org/1999/xlink" width="512" height="512" viewBox="0 0 512 512"><defs><linearGradient id="a" data-name="New Gradient Swatch 1" x1="83.121" y1="596.879" x2="605.998" y2="74.002" gradientUnits="userSpaceOnUse"><stop offset="0" stop-color="#003f8a"/><stop offset="0.518" stop-color="#00d7df"/><stop offset="1" stop-color="#006df0"/></linearGradient><linearGradient id="b" x1="-23.167" y1="490.592" x2="499.71" y2="-32.285" xlink:href="#a"/><linearGradient id="c" x1="83.121" y1="596.879" x2="605.998" y2="74.002" xlink:href="#a"/><linearGradient id="d" x1="-168.879" y1="344.879" x2="353.998" y2="-177.998" xlink:href="#a"/><linearGradient id="e" x1="-120.879" y1="392.879" x2="401.998" y2="-129.998" xlink:href="#a"/><linearGradient id="f" x1="-134.879" y1="378.879" x2="387.998" y2="-143.998" xlink:href="#a"/><linearGradient id="g" x1="-94.879" y1="418.879" x2="427.998" y2="-103.998" xlink:href="#a"/><linearGradient id="h" x1="-122.879" y1="390.879" x2="399.998" y2="-131.998" xlink:href="#a"/><linearGradient id="i" x1="-82.879" y1="430.879" x2="439.998" y2="-91.998" xlink:href="#a"/><linearGradient id="j" x1="-110.879" y1="402.879" x2="411.998" y2="-119.998" xlink:href="#a"/><linearGradient id="k" x1="-70.879" y1="442.879" x2="451.998" y2="-79.998" xlink:href="#a"/><linearGradient id="l" x1="-50.879" y1="462.879" x2="471.998" y2="-59.998" xlink:href="#a"/><linearGradient id="m" x1="-24.879" y1="488.879" x2="497.998" y2="-33.998" xlink:href="#a"/><linearGradient id="n" x1="-38.879" y1="474.879" x2="483.998" y2="-47.998" xlink:href="#a"/><linearGradient id="o" x1="-12.879" y1="500.879" x2="509.998" y2="-21.998" xlink:href="#a"/><linearGradient id="p" x1="-26.879" y1="486.879" x2="495.998" y2="-35.998" xlink:href="#a"/><linearGradient id="q" x1="-0.879" y1="512.879" x2="521.998" y2="-9.998" xlink:href="#a"/><linearGradient id="r" x1="-72.879" y1="440.879" x2="449.998" y2="-81.998" xlink:href="#a"/><linearGradient id="s" x1="-90.879" y1="422.879" x2="431.998" y2="-99.998" xlink:href="#a"/><linearGradient id="t" x1="-62.879" y1="450.879" x2="459.998" y2="-71.998" xlink:href="#a"/><linearGradient id="u" x1="-78.879" y1="434.879" x2="443.998" y2="-87.998" xlink:href="#a"/><linearGradient id="v" x1="-66.879" y1="446.879" x2="455.998" y2="-75.998" xlink:href="#a"/></defs><g><path d="M357.655,354.341a23.989,23.989,0,0,0-13.775-33.006A8.043,8.043,0,0,0,344,320V264a8,8,0,0,0-16,0v56a8.043,8.043,0,0,0,.12,1.335,24,24,0,1,0,18.22,44.32l24,24a8,8,0,0,0,11.314-11.314ZM328,344a8,8,0,1,1,8,8A8.009,8.009,0,0,1,328,344Z" fill="url(#a)"/><path d="M360,185.8V168a8,8,0,0,0-8-8h-8V16a8,8,0,0,0-8-8H24a8,8,0,0,0-8,8V448a8,8,0,0,0,8,8H221.86A159.51,159.51,0,0,0,336,504c88.22,0,160-71.78,160-160C496,263.93,436.88,197.41,360,185.8ZM344,176v8H328v-8ZM32,440V24H328V160h-8a8,8,0,0,0-8,8v17.8C235.12,197.41,176,263.93,176,344a159.188,159.188,0,0,0,32.08,96Zm304,48c-79.4,0-144-64.6-144-144s64.6-144,144-144,144,64.6,144,144S415.4,488,336,488Z" fill="url(#b)"/><path d="M336,216A128,128,0,1,0,464,344,128.145,128.145,0,0,0,336,216Zm8,239.711V448a8,8,0,0,0-16,0v7.711A112.168,112.168,0,0,1,224.289,352H232a8,8,0,0,0,0-16h-7.711A112.168,112.168,0,0,1,328,232.289V240a8,8,0,0,0,16,0v-7.711A112.168,112.168,0,0,1,447.711,336H440a8,8,0,0,0,0,16h7.711A112.168,112.168,0,0,1,344,455.711Z" fill="url(#c)"/><path d="M139.2,49.6,120,64a8,8,0,0,0-8-8H48a8,8,0,0,0-8,8v64a8,8,0,0,0,8,8h64a8,8,0,0,0,8-8V84l28.8-21.6a8,8,0,0,0-9.6-12.8ZM104,120H56V72h48v4L82.869,91.849l-3.714-7.427a8,8,0,1,0-14.31,7.156l8,16A8,8,0,0,0,84.8,110.4L104,96Z" fill="url(#d)"/><path d="M139.2,145.6,120,160a8,8,0,0,0-8-8H48a8,8,0,0,0-8,8v64a8,8,0,0,0,8,8h64a8,8,0,0,0,8-8V180l28.8-21.6a8,8,0,1,0-9.6-12.8ZM104,216H56V168h48v4L82.869,187.849l-3.714-7.427a8,8,0,1,0-14.31,7.156l8,16A8,8,0,0,0,84.8,206.4L104,192Z" fill="url(#e)"/><path d="M168,80h8a8,8,0,0,0,0-16h-8a8,8,0,0,0,0,16Z" fill="url(#f)"/><path d="M200,80H304a8,8,0,0,0,0-16H200a8,8,0,0,0,0,16Z" fill="url(#g)"/><path d="M168,104h8a8,8,0,0,0,0-16h-8a8,8,0,0,0,0,16Z" fill="url(#h)"/><path d="M200,104H304a8,8,0,0,0,0-16H200a8,8,0,0,0,0,16Z" fill="url(#i)"/><path d="M168,128h8a8,8,0,0,0,0-16h-8a8,8,0,0,0,0,16Z" fill="url(#j)"/><path d="M200,128H304a8,8,0,0,0,0-16H200a8,8,0,0,0,0,16Z" fill="url(#k)"/><path d="M56,352H48a8,8,0,0,0,0,16h8a8,8,0,0,0,0-16Z" fill="url(#l)"/><path d="M128,352H80a8,8,0,0,0,0,16h48a8,8,0,0,0,0-16Z" fill="url(#m)"/><path d="M56,376H48a8,8,0,0,0,0,16h8a8,8,0,0,0,0-16Z" fill="url(#n)"/><path d="M128,376H80a8,8,0,0,0,0,16h48a8,8,0,0,0,0-16Z" fill="url(#o)"/><path d="M56,400H48a8,8,0,0,0,0,16h8a8,8,0,0,0,0-16Z" fill="url(#p)"/><path d="M128,400H80a8,8,0,0,0,0,16h48a8,8,0,0,0,0-16Z" fill="url(#q)"/><path d="M139.2,241.6,120,256a8,8,0,0,0-8-8H48a8,8,0,0,0-8,8v64a8,8,0,0,0,8,8h64a8,8,0,0,0,8-8V276l28.8-21.6a8,8,0,1,0-9.6-12.8ZM104,312H56V264h48v4L82.869,283.849l-3.714-7.427a8,8,0,1,0-14.31,7.156l8,16A8,8,0,0,0,84.8,302.4L104,288Z" fill="url(#r)"/><path d="M168,168h8a8,8,0,0,0,0-16h-8a8,8,0,0,0,0,16Z" fill="url(#s)"/><path d="M200,168h56a8,8,0,0,0,0-16H200a8,8,0,0,0,0,16Z" fill="url(#t)"/><path d="M168,192h8a8,8,0,0,0,0-16h-8a8,8,0,0,0,0,16Z" fill="url(#u)"/><path d="M184,208a8,8,0,0,0-8-8h-8a8,8,0,0,0,0,16h8A8,8,0,0,0,184,208Z" fill="url(#v)"/><path d="M200,192h56a8,8,0,0,0,0-16H200a8,8,0,0,0,0,16Z" fill="url(#l)"/></g></svg>
