<svg id="_x31__x2C_5" height="512" viewBox="0 0 24 24" width="512" xmlns="http://www.w3.org/2000/svg"><path d="m12.189 18.25 5.561 5.561 2.061-2.061-5.03-5.03c-.146-.146-.338-.22-.53-.22s-.384.073-.53.22z" fill="#cfd8dc"/><path d="m8.468 6.988-1.592-1.592c-.688-.689-1.924-.688-2.611 0l-2.872 2.872c-.344.344-.542.82-.542 1.306s.198.962.541 1.305l1.592 1.593c.115.115.272.18.435.18s.32-.065.435-.18l4.613-4.613c.115-.115.18-.272.18-.435s-.063-.321-.179-.436z" fill="#cfd8dc"/><path d="m15.018 13.473-.977-.977-.185-1.69c-.051-.576-.311-1.124-.73-1.543l-2.281-2.281c-.609-.61-1.69-.61-2.3 0l-5.563 5.562c-.305.304-.473.713-.473 1.151s.168.847.473 1.15l2.28 2.281c.419.419.967.678 1.529.728l1.704.187.977.977c.305.305.713.473 1.15.473s.845-.168 1.15-.473l3.245-3.244c.305-.304.473-.713.473-1.151s-.168-.846-.472-1.15z" fill="#607d8b"/><path d="m23.25 10.315c0 .52-.43.95-.96.95h-10.58c-.53 0-.96-.43-.96-.95 0-.19.05-.36.14-.5l5.29-8.59c.17-.28.47-.46.82-.46s.65.18.82.46l5.29 8.59c.09.141.14.31.14.5z" fill="#ffc107"/><path d="m3.13 13.5c-.192 0-.384-.073-.53-.22l-1.94-1.94c-.419-.418-.66-.997-.66-1.59s.241-1.172.661-1.591l3.499-3.499c.836-.838 2.343-.839 3.181.001l1.939 1.939c.293.293.293.768 0 1.061s-.768.293-1.061 0l-1.94-1.939c-.281-.283-.778-.282-1.057-.002l-3.501 3.501c-.141.14-.221.333-.221.529s.08.389.22.528l1.94 1.941c.293.293.293.768 0 1.061-.146.147-.339.22-.53.22z"/><path d="m10.75 20c-.471 0-.911-.181-1.24-.51l-1.054-1.054-1.837-.201c-.606-.054-1.197-.333-1.649-.785l-2.46-2.46c-.329-.329-.51-.769-.51-1.24s.181-.911.51-1.24l6-6c.293-.293.768-.293 1.061 0s.293.768 0 1.061l-6 6c-.032.032-.07.09-.07.18s.038.147.07.18l2.46 2.46c.201.201.47.33.736.354l2.114.231c.17.019.328.094.449.215l1.24 1.24c.064.064.295.064.359 0l3.5-3.5c.032-.032.07-.09.07-.18s-.038-.147-.07-.18c-.293-.293-.293-.768 0-1.061s.768-.293 1.061 0c.329.329.51.77.51 1.24s-.181.911-.51 1.24l-3.5 3.5c-.329.329-.769.51-1.24.51z"/><path d="m19.25 22c-.192 0-.384-.073-.53-.22l-5-5c-.293-.293-.293-.768 0-1.061s.768-.293 1.061 0l5 5c.293.293.293.768 0 1.061-.147.147-.339.22-.531.22z"/><path d="m17.25 24c-.192 0-.384-.073-.53-.22l-5-5c-.293-.293-.293-.768 0-1.061s.768-.293 1.061 0l5 5c.293.293.293.768 0 1.061-.147.147-.339.22-.531.22z"/><path d="m3.25 10c-.192 0-.384-.073-.53-.22l-1.31-1.31c-.293-.293-.293-.768 0-1.061s.768-.293 1.061 0l1.31 1.31c.293.293.293.768 0 1.061-.147.147-.339.22-.531.22z"/><path d="m5.25 8c-.192 0-.384-.073-.53-.22l-1.31-1.31c-.293-.293-.293-.768 0-1.061s.768-.293 1.061 0l1.31 1.31c.293.293.293.768 0 1.061-.147.147-.339.22-.531.22z"/><path d="m22.288 12h-10.576c-.944 0-1.712-.765-1.712-1.704 0-.335.094-.651.272-.916l5.271-8.565c.295-.499.855-.815 1.457-.815s1.162.316 1.463.827l5.281 8.578c.162.24.256.556.256.891 0 .939-.768 1.704-1.712 1.704zm-5.288-10.5c-.088 0-.147.048-.172.089l-5.328 8.707c0 .11.097.204.212.204h10.576c.115 0 .212-.094.212-.204 0-.033-.006-.063-.017-.078l-5.305-8.616c-.031-.054-.09-.102-.178-.102z"/><path d="m17 7.5c-.414 0-.75-.336-.75-.75v-2c0-.414.336-.75.75-.75s.75.336.75.75v2c0 .414-.336.75-.75.75z"/><circle cx="17" cy="9" r=".75"/></svg>