<svg height="512" viewBox="0 0 512 512" width="512" xmlns="http://www.w3.org/2000/svg" xmlns:xlink="http://www.w3.org/1999/xlink"><linearGradient id="a" gradientUnits="userSpaceOnUse" x1="45.481" x2="529.085" y1="514.519" y2="30.915" data-name="New Gradient Swatch 1"><stop offset="0" stop-color="#003f8a"/><stop offset=".518" stop-color="#00d7df"/><stop offset="1" stop-color="#006df0"/></linearGradient><linearGradient id="b" x1="57.481" x2="541.085" xlink:href="#a" y1="526.519" y2="42.915"/><linearGradient id="c" x1="25.481" x2="509.085" xlink:href="#a" y1="494.519" y2="10.915"/><linearGradient id="d" x1="109.481" x2="593.085" xlink:href="#a" y1="578.519" y2="94.915"/><linearGradient id="e" x1="101.481" x2="585.085" xlink:href="#a" y1="570.519" y2="86.915"/><linearGradient id="f" x1="135.481" x2="619.085" xlink:href="#a" y1="604.519" y2="120.915"/><linearGradient id="g" x1="-62.519" x2="421.085" xlink:href="#a" y1="406.519" y2="-77.085"/><linearGradient id="h" x1="-70.519" x2="413.085" xlink:href="#a" y1="398.519" y2="-85.085"/><linearGradient id="i" x1="-36.519" x2="447.085" xlink:href="#a" y1="432.519" y2="-51.085"/><linearGradient id="j" x1="-10.519" x2="473.085" xlink:href="#a" y1="458.519" y2="-25.085"/><linearGradient id="k" x1="-22.519" x2="461.085" xlink:href="#a" y1="446.519" y2="-37.085"/><linearGradient id="l" x1="-34.519" x2="449.085" xlink:href="#a" y1="434.519" y2="-49.085"/><linearGradient id="m" x1="-18.519" x2="465.085" xlink:href="#a" y1="450.519" y2="-33.085"/><linearGradient id="n" x1="15.481" x2="499.085" xlink:href="#a" y1="484.519" y2=".915"/><linearGradient id="o" x1="-104.519" x2="379.085" xlink:href="#a" y1="364.519" y2="-119.085"/><g><path d="m496 144h-24v-24a7.978 7.978 0 0 0 -4.65-7.26c-70.11-32.37-141.2-32.87-211.35-1.53-70.15-31.34-141.24-30.84-211.35 1.53a7.978 7.978 0 0 0 -4.65 7.26v24h-24a8 8 0 0 0 -8 8v304a8 8 0 0 0 8 8h480a8 8 0 0 0 8-8v-304a8 8 0 0 0 -8-8zm-232-18.81c31.93-14.05 64.2-21.19 96-21.19s64.07 7.12 96 21.17v286.61c-63.76-26.27-128.24-26.25-192 .02zm-208-.02c31.93-14.05 64.2-21.17 96-21.17s64.07 7.14 96 21.19v286.6q-47.82-19.695-96-19.71-48.09 0-96 19.7zm432 322.83h-464v-288h16v264a7.995 7.995 0 0 0 11.35 7.26c33.45-15.43 67.31-23.26 100.65-23.26s67.2 7.83 100.65 23.26a7.928 7.928 0 0 0 6.7 0c33.45-15.43 67.31-23.26 100.65-23.26s67.2 7.83 100.65 23.26a7.856 7.856 0 0 0 3.35.74 8 8 0 0 0 8-8v-264h16z" fill="url(#a)"/><path d="m280 312h160a8 8 0 0 0 8-8v-160a8 8 0 0 0 -8-8h-160a8 8 0 0 0 -8 8v160a8 8 0 0 0 8 8zm78.606-16h-61.212l30.606-35.707zm21.074 0-22.641-26.415 42.989-51.185 31.972 37.715v39.885zm52.32-144v79.373l-25.9-30.546a8 8 0 0 0 -6.1-2.827h-.019a8 8 0 0 0 -6.107 2.854l-47.389 56.419-12.411-14.48a8 8 0 0 0 -12.148 0l-33.926 39.581v-130.374z" fill="url(#b)"/><path d="m328 224a32 32 0 1 0 -32-32 32.036 32.036 0 0 0 32 32zm0-48a16 16 0 1 1 -16 16 16.019 16.019 0 0 1 16-16z" fill="url(#c)"/><path d="m280 336h160a8 8 0 0 0 0-16h-160a8 8 0 0 0 0 16z" fill="url(#d)"/><path d="m360 344h-80a8 8 0 0 0 0 16h80a8 8 0 0 0 0-16z" fill="url(#e)"/><path d="m392 344h-8a8 8 0 0 0 0 16h8a8 8 0 0 0 0-16z" fill="url(#f)"/><path d="m72 200h160a8 8 0 0 0 0-16h-160a8 8 0 0 0 0 16z" fill="url(#g)"/><path d="m72 224h80a8 8 0 0 0 0-16h-80a8 8 0 0 0 0 16z" fill="url(#h)"/><path d="m176 208a8 8 0 0 0 0 16h8a8 8 0 0 0 0-16z" fill="url(#i)"/><path d="m72 304h160a8 8 0 0 0 0-16h-160a8 8 0 0 0 0 16z" fill="url(#j)"/><path d="m72 280h160a8 8 0 0 0 0-16h-160a8 8 0 0 0 0 16z" fill="url(#k)"/><path d="m72 256h160a8 8 0 0 0 0-16h-160a8 8 0 0 0 0 16z" fill="url(#l)"/><path d="m160 320a8 8 0 0 0 -8-8h-80a8 8 0 0 0 0 16h80a8 8 0 0 0 8-8z" fill="url(#m)"/><path d="m184 312h-8a8 8 0 0 0 0 16h8a8 8 0 0 0 0-16z" fill="url(#n)"/><path d="m72 160h72a8 8 0 0 0 0-16h-72a8 8 0 0 0 0 16z" fill="url(#o)"/></g></svg>