<?xml version="1.0" encoding="UTF-8" standalone="no"?>
<svg
   xmlns:dc="http://purl.org/dc/elements/1.1/"
   xmlns:cc="http://creativecommons.org/ns#"
   xmlns:rdf="http://www.w3.org/1999/02/22-rdf-syntax-ns#"
   xmlns:svg="http://www.w3.org/2000/svg"
   xmlns="http://www.w3.org/2000/svg"
   xmlns:sodipodi="http://sodipodi.sourceforge.net/DTD/sodipodi-0.dtd"
   xmlns:inkscape="http://www.inkscape.org/namespaces/inkscape"
   height="512pt"
   viewBox="0 0 512 512"
   width="512pt"
   version="1.1"
   id="svg8"
   sodipodi:docname="plus (copia).svg"
   inkscape:version="0.92.3 (2405546, 2018-03-11)">
  <metadata
     id="metadata14">
    <rdf:RDF>
      <cc:Work
         rdf:about="">
        <dc:format>image/svg+xml</dc:format>
        <dc:type
           rdf:resource="http://purl.org/dc/dcmitype/StillImage" />
        <dc:title></dc:title>
      </cc:Work>
    </rdf:RDF>
  </metadata>
  <defs
     id="defs12" />
  <sodipodi:namedview
     pagecolor="#ffffff"
     bordercolor="#666666"
     borderopacity="1"
     objecttolerance="10"
     gridtolerance="10"
     guidetolerance="10"
     inkscape:pageopacity="0"
     inkscape:pageshadow="2"
     inkscape:window-width="1299"
     inkscape:window-height="713"
     id="namedview10"
     showgrid="false"
     inkscape:zoom="0.82001922"
     inkscape:cx="341.33334"
     inkscape:cy="341.33332"
     inkscape:window-x="67"
     inkscape:window-y="27"
     inkscape:window-maximized="1"
     inkscape:current-layer="svg8" />
  <path
     d="m256 512c-141.164062 0-256-114.835938-256-256s114.835938-256 256-256 256 114.835938 256 256-114.835938 256-256 256zm0-480c-123.519531 0-224 100.480469-224 224s100.480469 224 224 224 224-100.480469 224-224-100.480469-224-224-224zm0 0"
     id="path2"
     style="stroke:#ffffff;fill:#feffff;fill-opacity:1;stroke-opacity:1" />
  <path
     d="m368 272h-224c-8.832031 0-16-7.167969-16-16s7.167969-16 16-16h224c8.832031 0 16 7.167969 16 16s-7.167969 16-16 16zm0 0"
     id="path4"
     style="stroke:#ffffff;fill:#feffff;fill-opacity:1;stroke-opacity:1" />
  <path
     d="m256 384c-8.832031 0-16-7.167969-16-16v-224c0-8.832031 7.167969-16 16-16s16 7.167969 16 16v224c0 8.832031-7.167969 16-16 16zm0 0"
     id="path6"
     style="stroke:#ffffff;fill:#feffff;fill-opacity:1;stroke-opacity:1" />
  <path
     style="opacity:1;fill:#feffff;fill-opacity:1;stroke:#ffffff;stroke-width:12.19483566;stroke-linecap:square;stroke-linejoin:round;stroke-miterlimit:4;stroke-dasharray:none;stroke-opacity:1"
     d="m 332.09346,508.98967 c -3.4027,-1.6843 -6.2639,-4.37047 -8.23151,-7.72795 l -3.01593,-5.1463 V 428.8461 361.57677 h -67.21043 c -65.53234,0 -67.32167,-0.0626 -71.66561,-2.50395 -13.85983,-7.78966 -14.07019,-27.03616 -0.38849,-35.54344 l 4.51159,-2.80531 67.37647,-0.34428 67.37647,-0.34429 0.0201,-66.72731 0.0201,-66.72732 2.74863,-4.85307 c 4.82367,-8.51684 15.78256,-12.52422 24.87511,-9.09619 5.10564,1.9249 11.22204,8.38213 12.58422,13.28543 0.71846,2.58619 1.2035,30.40521 1.20756,69.25979 l 0.007,64.9375 64.32776,0.007 c 41.12553,0.005 65.98924,0.46819 68.93415,1.286 5.63012,1.56349 12.24757,7.17711 14.29913,12.13002 2.047,4.9419 0.93976,15.21267 -2.07946,19.2892 -1.32908,1.7945 -4.23071,4.49746 -6.44805,6.00658 l -4.03154,2.74383 h -67.50099 -67.501 l -0.0268,66.15699 c -0.0249,61.5811 -0.18171,66.49438 -2.26674,71.03492 -2.66432,5.80208 -5.38388,8.40214 -11.43113,10.92884 -6.07758,2.53938 -10.29598,2.3583 -16.49035,-0.70785 z"
     id="path866"
     inkscape:connector-curvature="0"
     transform="scale(0.74999998)" />
  <path
     style="opacity:1;fill:#feffff;fill-opacity:1;stroke:#ffffff;stroke-width:12.19483566;stroke-linecap:square;stroke-linejoin:round;stroke-miterlimit:4;stroke-dasharray:none;stroke-opacity:1"
     d="M 314.02709,681.13202 C 219.60777,672.59372 134.7816,627.58173 76.073749,554.86492 55.645763,529.56238 32.456592,488.7307 21.457599,458.69638 -9.0559952,375.37464 -5.6152388,281.35614 30.884811,201.09824 48.656427,162.02124 69.699467,132.04414 101.8693,99.976469 156.23145,45.786951 221.52029,13.809465 300.1148,2.8788126 c 7.19055,-1.0000367 23.14969,-1.5899956 42.07218,-1.5552754 35.16929,0.064531 52.63672,2.1846116 84.06742,10.2035438 74.92951,19.116803 141.30274,63.762646 188.12396,126.541269 37.86357,50.76808 60.38641,109.45257 66.30603,172.76396 2.84846,30.46475 -0.0981,76.06178 -6.78595,105.01148 -20.09013,86.9638 -71.46872,160.88208 -146.34995,210.55341 -16.26934,10.79201 -49.82995,27.83575 -67.81389,34.43923 -23.87683,8.76727 -49.3622,15.03235 -74.91404,18.41617 -17.27218,2.28735 -55.15967,3.29318 -70.79347,1.87942 z m 67.55354,-43.3398 c 32.08805,-4.57134 62.10548,-13.79366 91.0911,-27.98613 30.05913,-14.7181 55.96533,-33.20195 79.65286,-56.83161 45.90046,-45.78835 74.89876,-102.96683 85.03385,-167.66875 2.7077,-17.28579 3.65618,-54.08027 1.85338,-71.89856 C 631.41173,236.31329 594.69606,164.86592 537.7129,115.89387 492.63683,77.154916 442.14965,53.986529 383.03968,44.914874 363.51143,41.917856 319.66925,41.915552 300.1148,44.910516 205.24836,59.44027 125.92292,113.97165 79.712724,196.42342 43.85245,260.40807 33.211754,337.46703 50.171801,410.35612 c 9.342368,40.15063 32.313909,86.8727 58.420169,118.82144 52.34114,64.05489 124.30157,102.28591 207.84414,110.4231 14.54693,1.41689 49.27104,0.45294 65.14452,-1.80844 z"
     id="path868"
     inkscape:connector-curvature="0"
     transform="scale(0.74999998)" />
</svg>
