<svg height="512" viewBox="0 0 512 512" width="512" xmlns="http://www.w3.org/2000/svg" xmlns:xlink="http://www.w3.org/1999/xlink"><linearGradient id="a" gradientUnits="userSpaceOnUse" x1="-42.5" x2="513.603" y1="490.5" y2="-65.603" data-name="New Gradient Swatch 1"><stop offset="0" stop-color="#003f8a"/><stop offset=".518" stop-color="#00d7df"/><stop offset="1" stop-color="#006df0"/></linearGradient><linearGradient id="b" x1="-56.5" x2="499.603" xlink:href="#a" y1="476.5" y2="-79.603"/><linearGradient id="c" x1="-44.5" x2="511.603" xlink:href="#a" y1="488.5" y2="-67.603"/><linearGradient id="d" x1="-32.5" x2="523.603" xlink:href="#a" y1="500.5" y2="-55.603"/><linearGradient id="e" x1="-20.5" x2="535.603" xlink:href="#a" y1="512.5" y2="-43.603"/><linearGradient id="f" x1="-22.5" x2="533.603" xlink:href="#a" y1="510.5" y2="-45.603"/><linearGradient id="g" x1="11.5" x2="567.603" xlink:href="#a" y1="544.5" y2="-11.603"/><linearGradient id="h" x1="-134.5" x2="421.603" xlink:href="#a" y1="398.5" y2="-157.603"/><linearGradient id="i" x1="-98.5" x2="457.603" xlink:href="#a" y1="434.5" y2="-121.603"/><linearGradient id="j" x1="-170.5" x2="385.603" xlink:href="#a" y1="362.5" y2="-193.603"/><linearGradient id="k" x1="65.5" x2="621.603" xlink:href="#a" y1="598.5" y2="42.398"/><linearGradient id="l" x1="-106.5" x2="449.603" xlink:href="#a" y1="426.5" y2="-129.603"/><linearGradient id="n" x1="49.708" x2="605.811" xlink:href="#a" y1="582.708" y2="26.606"/><linearGradient id="o" x1="1.5" x2="557.603" xlink:href="#a" y1="534.5" y2="-21.603"/><linearGradient id="p" x1="-6.5" x2="549.603" xlink:href="#a" y1="526.5" y2="-29.603"/><g><path d="m360 8h-336a8 8 0 0 0 -8 8v480a8 8 0 0 0 8 8h336a8 8 0 0 0 8-8v-480a8 8 0 0 0 -8-8zm-8 480h-320v-464h320z" fill="url(#a)"/><path d="m184 160a8 8 0 0 0 8 8h136a8 8 0 0 0 0-16h-136a8 8 0 0 0 -8 8z" fill="url(#b)"/><path d="m328 176h-136a8 8 0 0 0 0 16h136a8 8 0 0 0 0-16z" fill="url(#c)"/><path d="m328 200h-136a8 8 0 0 0 0 16h136a8 8 0 0 0 0-16z" fill="url(#d)"/><path d="m328 224h-136a8 8 0 0 0 0 16h136a8 8 0 0 0 0-16z" fill="url(#e)"/><path d="m272 264a8 8 0 0 0 0-16h-80a8 8 0 0 0 0 16z" fill="url(#f)"/><path d="m304 264a8 8 0 0 0 0-16h-8a8 8 0 0 0 0 16z" fill="url(#g)"/><path d="m192 104a32 32 0 1 0 -32-32 32.036 32.036 0 0 0 32 32zm0-48a16 16 0 1 1 -16 16 16.019 16.019 0 0 1 16-16z" fill="url(#h)"/><path d="m240 80h48a8 8 0 0 0 0-16h-48a8 8 0 0 0 0 16z" fill="url(#i)"/><path d="m96 80h48a8 8 0 0 0 0-16h-48a8 8 0 0 0 0 16z" fill="url(#j)"/><path d="m488 72h-24a8 8 0 0 0 -8 8v40h-8v-40a8 8 0 0 0 -8-8v-40a8 8 0 0 0 -8-8h-32a8 8 0 0 0 -8 8v40a8 8 0 0 0 -8 8v216a8 8 0 0 0 -8 8v112a8 8 0 0 0 8 8h2.456l22.053 58.809a8 8 0 0 0 14.982 0l22.053-58.809h2.456a8 8 0 0 0 8-8v-112a8 8 0 0 0 -8-8v-160h8v56a8 8 0 0 0 8 8h24a8 8 0 0 0 8-8v-112a8 8 0 0 0 -8-8zm-80-32h16v32h-16zm32 368h-48v-96h48zm-24 49.216-12.456-33.216h24.912zm-16-161.216v-208h32v208zm80-112h-8v-96h8z" fill="url(#k)"/><path d="m112 144a64 64 0 1 0 64 64 64.072 64.072 0 0 0 -64-64zm0 112a48 48 0 1 1 48-48 48.051 48.051 0 0 1 -48 48z" fill="url(#l)"/><path d="m136 208v24a8 8 0 0 1 -8 8h-8a8 8 0 0 1 -16 0h-8a8 8 0 0 1 0-16h24v-8h-24a8 8 0 0 1 -8-8v-24a8 8 0 0 1 8-8h8a8 8 0 0 1 16 0h8a8 8 0 0 1 0 16h-24v8h24a8 8 0 0 1 8 8z" fill="url(#l)"/><path d="m310.5 426.324c-22.432 9.737-45.627 19.8-69.823 22.829-25.9 3.242-49.583-2.819-64.975-16.618a127.932 127.932 0 0 1 -10.849-11.528c-5.775-6.652-11.747-13.53-19.715-18.684-9.2-5.954-21.615-7.881-31.62-4.9a25.362 25.362 0 0 0 -16.4 13.9 8 8 0 1 0 14.617 6.508c1.087-2.441 3.22-4.149 6.341-5.076 5.539-1.648 13.094-.411 18.372 3 6.063 3.923 11.047 9.663 16.324 15.74a141.705 141.705 0 0 0 12.25 12.95c15.618 14.008 37.735 21.555 62.22 21.555a124.322 124.322 0 0 0 15.417-.973c26.475-3.31 50.741-13.842 74.208-24.028a8 8 0 0 0 -6.37-14.678z" fill="url(#n)"/><path d="m112 312v64a8 8 0 0 0 8 8h144a8 8 0 0 0 8-8v-64a8 8 0 0 0 -8-8h-144a8 8 0 0 0 -8 8zm16 8h128v48h-128z" fill="url(#o)"/><path d="m82.343 426.343-16 16a8 8 0 0 0 11.314 11.314l16-16a8 8 0 0 0 -11.314-11.314z" fill="url(#p)"/></g></svg>