<svg height="512" viewBox="0 0 512 512" width="512" xmlns="http://www.w3.org/2000/svg" xmlns:xlink="http://www.w3.org/1999/xlink"><linearGradient id="a" gradientUnits="userSpaceOnUse" x1="-20.499" x2="495.689" y1="496.501" y2="-19.687" data-name="New Gradient Swatch 1"><stop offset="0" stop-color="#003f8a"/><stop offset=".518" stop-color="#00d7df"/><stop offset="1" stop-color="#006df0"/></linearGradient><linearGradient id="b" x1="-78.5" x2="437.688" xlink:href="#a" y1="438.5" y2="-77.688"/><linearGradient id="c" x1="35.981" x2="552.169" xlink:href="#a" y1="552.981" y2="36.793"/><linearGradient id="d" x1="43.5" x2="559.688" xlink:href="#a" y1="560.5" y2="44.312"/><linearGradient id="e" x1="-24.5" x2="491.688" xlink:href="#a" y1="492.5" y2="-23.688"/><linearGradient id="f" x1="76.326" x2="592.514" xlink:href="#a" y1="593.326" y2="77.138"/><g><path d="m496 184h-40a8 8 0 0 0 -8-8h-248a8 8 0 0 0 -8-8h-112a8 8 0 0 0 -8 8v2.46l-58.81 22.05a8 8 0 0 0 0 14.98l58.81 22.05v2.46a8 8 0 0 0 8 8h112a8 8 0 0 0 8-8h192v8h-56a8 8 0 0 0 -8 8v24a8 8 0 0 0 8 8h112a8 8 0 0 0 8-8v-24a8 8 0 0 0 -8-8h-40v-8h40a8 8 0 0 0 8-8h40a8 8 0 0 0 8-8v-32a8 8 0 0 0 -8-8zm-424 36.46-33.22-12.46 33.22-12.46zm112 11.54h-96v-48h96zm256 32v8h-96v-8zm0-40h-240v-32h240zm48-8h-32v-16h32z" fill="url(#a)"/><path d="m496 56h-480a8 8 0 0 0 -8 8v80a8 8 0 0 0 8 8h480a8 8 0 0 0 8-8v-80a8 8 0 0 0 -8-8zm-8 80h-8v-8a8 8 0 0 0 -16 0v8h-8v-24a8 8 0 0 0 -16 0v24h-8v-8a8 8 0 0 0 -16 0v8h-8v-24a8 8 0 0 0 -16 0v24h-8v-8a8 8 0 0 0 -16 0v8h-8v-24a8 8 0 0 0 -16 0v24h-8v-8a8 8 0 0 0 -16 0v8h-8v-24a8 8 0 0 0 -16 0v24h-8v-8a8 8 0 0 0 -16 0v8h-8v-24a8 8 0 0 0 -16 0v24h-8v-8a8 8 0 0 0 -16 0v8h-8v-24a8 8 0 0 0 -16 0v24h-8v-8a8 8 0 0 0 -16 0v8h-8v-24a8 8 0 0 0 -16 0v24h-8v-8a8 8 0 0 0 -16 0v8h-8v-24a8 8 0 0 0 -16 0v24h-8v-8a8 8 0 0 0 -16 0v8h-8v-24a8 8 0 0 0 -16 0v24h-8v-8a8 8 0 0 0 -16 0v8h-8v-64h464z" fill="url(#b)"/><path d="m472 296h-392a7.916 7.916 0 0 0 -2.77.5c-.01.01-.03 0-.04.01l-64 24a8 8 0 0 0 0 14.98l64 24h.02a8.076 8.076 0 0 0 2.79.51h392a32 32 0 0 0 0-64zm-400 44.46-33.22-12.46 33.22-12.46zm344 3.54h-328v-32h328zm24 0h-8v-32h8zm32 0h-16v-32h16a16 16 0 0 1 0 32z" fill="url(#c)"/><path d="m384 320h-216a8 8 0 0 0 0 16h216a8 8 0 0 0 0-16z" fill="url(#d)"/><path d="m144 320h-8a8 8 0 0 0 0 16h8a8 8 0 0 0 0-16z" fill="url(#e)"/><path d="m312 376h-120a8 8 0 0 0 -8 8v64a8 8 0 0 0 8 8h120a16.019 16.019 0 0 0 16-16v-48a16.019 16.019 0 0 0 -16-16zm-112 16h80v48h-80zm112 48h-16v-48h16l.01 48z" fill="url(#f)"/></g></svg>