<?xml version="1.0" encoding="UTF-8" standalone="no"?>
<svg
   xmlns:dc="http://purl.org/dc/elements/1.1/"
   xmlns:cc="http://creativecommons.org/ns#"
   xmlns:rdf="http://www.w3.org/1999/02/22-rdf-syntax-ns#"
   xmlns:svg="http://www.w3.org/2000/svg"
   xmlns="http://www.w3.org/2000/svg"
   xmlns:sodipodi="http://sodipodi.sourceforge.net/DTD/sodipodi-0.dtd"
   xmlns:inkscape="http://www.inkscape.org/namespaces/inkscape"
   height="512"
   viewBox="0 0 512 512"
   width="512"
   version="1.1"
   id="svg51"
   sodipodi:docname="timeline.svg"
   inkscape:version="0.92.3 (2405546, 2018-03-11)">
  <metadata
     id="metadata57">
    <rdf:RDF>
      <cc:Work
         rdf:about="">
        <dc:format>image/svg+xml</dc:format>
        <dc:type
           rdf:resource="http://purl.org/dc/dcmitype/StillImage" />
        <dc:title></dc:title>
      </cc:Work>
    </rdf:RDF>
  </metadata>
  <defs
     id="defs55" />
  <sodipodi:namedview
     pagecolor="#ffffff"
     bordercolor="#666666"
     borderopacity="1"
     objecttolerance="10"
     gridtolerance="10"
     guidetolerance="10"
     inkscape:pageopacity="0"
     inkscape:pageshadow="2"
     inkscape:window-width="1299"
     inkscape:window-height="713"
     id="namedview53"
     showgrid="false"
     inkscape:zoom="0.4609375"
     inkscape:cx="218.0339"
     inkscape:cy="256"
     inkscape:window-x="67"
     inkscape:window-y="27"
     inkscape:window-maximized="1"
     inkscape:current-layer="svg51" />
  <path
     style="fill:#ffecb3;stroke-width:1.6736871"
     inkscape:connector-curvature="0"
     id="path14"
     d="M 488.24105,477.64971 H 172.56497 v -26.12429 l -27.45009,-26.12429 27.45009,-26.1243 v -26.12429 h 315.67608 z" />
  <path
     style="fill:#ffecb3;stroke-width:1.6736871"
     inkscape:connector-curvature="0"
     id="path16"
     d="M 488.24105,307.8418 H 172.56497 v -26.12429 l -27.45009,-26.12429 27.45009,-26.12429 v -26.1243 h 315.67608 z" />
  <path
     style="fill:#ffecb3;stroke-width:1.6736871"
     inkscape:connector-curvature="0"
     id="path18"
     d="M 488.24105,138.03389 H 172.56497 V 111.9096 L 145.11488,85.785314 172.56497,59.661017 V 33.536723 h 315.67608 z" />
  <ellipse
     style="fill:#ffd54f;stroke-width:1.6736871"
     id="circle20"
     cy="425.40112"
     cx="49.039547"
     rx="27.450094"
     ry="26.124292" />
  <ellipse
     style="fill:#ffd54f;stroke-width:1.6736871"
     id="circle22"
     cy="255.5932"
     cx="49.039547"
     rx="27.450094"
     ry="26.124292" />
  <ellipse
     style="fill:#ffd54f;stroke-width:1.6736871"
     id="circle24"
     cy="85.785316"
     cx="49.039547"
     rx="27.450094"
     ry="26.124292" />
  <path
     style="fill:#0d47a0;stroke-width:1.6736871"
     d="m 158.83992,456.93479 v 20.71492 a 13.725047,13.062147 0 0 0 13.72505,13.06215 H 488.24105 A 13.725047,13.062147 0 0 0 501.9661,477.64971 V 373.15254 A 13.725047,13.062147 0 0 0 488.24105,360.09039 H 172.56497 a 13.725047,13.062147 0 0 0 -13.72505,13.06215 v 20.71493 l -23.43037,22.29709 a 13.725047,13.062147 0 0 0 0,18.47314 z M 182.2703,408.5134 a 13.725047,13.062147 0 0 0 4.01971,-9.23657 V 386.21469 H 474.516 v 78.37288 H 186.29001 v -13.06215 a 13.725047,13.062147 0 0 0 -4.01971,-9.23657 l -17.74478,-16.88772 z"
     id="path26"
     inkscape:connector-curvature="0" />
  <path
     style="fill:#0d47a0;stroke-width:1.6736871"
     d="m 158.83992,287.12688 v 20.71492 a 13.725047,13.062147 0 0 0 13.72505,13.06216 H 488.24105 A 13.725047,13.062147 0 0 0 501.9661,307.8418 V 203.34463 A 13.725047,13.062147 0 0 0 488.24105,190.28248 H 172.56497 a 13.725047,13.062147 0 0 0 -13.72505,13.06215 v 20.71492 l -23.43037,22.29709 a 13.725047,13.062147 0 0 0 0,18.47315 z M 182.2703,238.7055 a 13.725047,13.062147 0 0 0 4.01971,-9.23657 V 216.40678 H 474.516 v 78.37287 H 186.29001 v -13.06214 a 13.725047,13.062147 0 0 0 -4.01971,-9.23656 l -17.74478,-16.88773 z"
     id="path28"
     inkscape:connector-curvature="0" />
  <path
     style="fill:#0d47a0;stroke-width:1.6736871"
     d="m 158.83992,117.3206 v 20.71329 a 13.725047,13.062147 0 0 0 13.72505,13.06215 H 488.24105 A 13.725047,13.062147 0 0 0 501.9661,138.03389 V 33.536723 A 13.725047,13.062147 0 0 0 488.24105,20.474577 H 172.56497 a 13.725047,13.062147 0 0 0 -13.72505,13.062146 v 20.713299 l -23.43037,22.298723 a 13.725047,13.062147 0 0 0 0,18.47314 z M 182.2703,68.897587 a 13.725047,13.062147 0 0 0 4.01971,-9.23657 V 46.59887 H 474.516 v 78.37288 H 186.29001 V 111.9096 a 13.725047,13.062147 0 0 0 -4.01971,-9.23657 L 164.52552,85.785314 Z"
     id="path30"
     inkscape:connector-curvature="0" />
  <path
     style="fill:#0d47a0;stroke-width:1.6736871"
     d="m 282.36535,412.33898 h 164.70056 v 26.1243 H 282.36535 Z"
     id="path32"
     inkscape:connector-curvature="0" />
  <path
     style="fill:#0d47a0;stroke-width:1.6736871"
     d="m 213.74011,412.33898 h 41.17515 v 26.1243 h -41.17515 z"
     id="path34"
     inkscape:connector-curvature="0" />
  <path
     style="fill:#0d47a0;stroke-width:1.6736871"
     d="m 282.36535,242.53108 h 164.70056 v 26.12429 H 282.36535 Z"
     id="path36"
     inkscape:connector-curvature="0" />
  <path
     style="fill:#0d47a0;stroke-width:1.6736871"
     d="m 213.74011,242.53108 h 41.17515 v 26.12429 h -41.17515 z"
     id="path38"
     inkscape:connector-curvature="0" />
  <path
     style="fill:#0d47a0;stroke-width:1.6736871"
     d="M 282.36535,72.723164 H 447.06591 V 98.847459 H 282.36535 Z"
     id="path40"
     inkscape:connector-curvature="0" />
  <path
     style="fill:#0d47a0;stroke-width:1.6736871"
     d="m 213.74011,72.723164 h 41.17515 v 26.124295 h -41.17515 z"
     id="path42"
     inkscape:connector-curvature="0" />
  <path
     style="fill:#0d47a0;stroke-width:1.6736871"
     d="m 7.8644068,425.40113 a 41.242051,39.250118 0 0 0 27.4500942,36.93974 v 28.37099 h 27.450094 v -28.37099 a 41.175141,39.186441 0 0 0 0,-73.87949 v -95.92841 a 41.175141,39.186441 0 0 0 0,-73.8795 v -95.92842 a 41.175141,39.186441 0 0 0 0,-73.879491 V 20.474577 H 35.314501 v 28.370982 a 41.175141,39.186441 0 0 0 0,73.879491 v 95.92842 a 41.175141,39.186441 0 0 0 0,73.8795 v 95.92841 A 41.242051,39.250118 0 0 0 7.8644068,425.40113 Z m 41.1751412,13.06215 a 13.725047,13.062147 0 1 1 13.725047,-13.06215 13.740488,13.076841 0 0 1 -13.725047,13.06215 z m 0,-365.740116 a 13.725047,13.062147 0 1 1 -13.725047,13.06215 13.740488,13.076841 0 0 1 13.725047,-13.06215 z m 0,169.807916 a 13.725047,13.062147 0 1 1 -13.725047,13.06214 13.740488,13.076841 0 0 1 13.725047,-13.06214 z"
     id="path44"
     inkscape:connector-curvature="0" />
</svg>
