<svg height="512" viewBox="0 0 512 512" width="512" xmlns="http://www.w3.org/2000/svg" xmlns:xlink="http://www.w3.org/1999/xlink"><linearGradient id="linear-gradient" gradientUnits="userSpaceOnUse" x1="54.231" x2="502.345" y1="509.769" y2="61.655"><stop offset="0" stop-color="#003f8a"/><stop offset=".518" stop-color="#00d7df"/><stop offset="1" stop-color="#006df0"/></linearGradient><linearGradient id="linear-gradient-2" x1="78.231" x2="526.345" xlink:href="#linear-gradient" y1="533.769" y2="85.655"/><linearGradient id="linear-gradient-3" x1="-55.769" x2="392.345" xlink:href="#linear-gradient" y1="399.769" y2="-48.345"/><linearGradient id="linear-gradient-4" x1="-23.769" x2="424.345" xlink:href="#linear-gradient" y1="431.769" y2="-16.345"/><linearGradient id="linear-gradient-5" x1="8.231" x2="456.345" xlink:href="#linear-gradient" y1="463.769" y2="15.655"/><linearGradient id="linear-gradient-6" x1="6.231" x2="454.345" xlink:href="#linear-gradient" y1="461.769" y2="13.655"/><linearGradient id="linear-gradient-8" x1="-3.769" x2="444.345" xlink:href="#linear-gradient" y1="451.769" y2="3.655"/><linearGradient id="linear-gradient-9" x1="14.231" x2="462.345" xlink:href="#linear-gradient" y1="469.769" y2="21.655"/><linearGradient id="linear-gradient-10" x1="11.327" x2="459.441" xlink:href="#linear-gradient" y1="466.865" y2="18.751"/><linearGradient id="linear-gradient-11" x1="158.231" x2="606.345" xlink:href="#linear-gradient" y1="613.769" y2="165.655"/><g id="Upload"><path d="m112 464h-40a8 8 0 0 0 0 16h40a8 8 0 0 0 0-16z" fill="url(#linear-gradient)"/><path d="m144 464h-8a8 8 0 0 0 0 16h8a8 8 0 0 0 0-16z" fill="url(#linear-gradient-2)"/><path d="m88 152h256a8 8 0 0 0 8-8v-32a8 8 0 0 0 -8-8h-256a8 8 0 0 0 -8 8v32a8 8 0 0 0 8 8zm8-32h240v16h-240z" fill="url(#linear-gradient-3)"/><path d="m88 216h256a8 8 0 0 0 8-8v-32a8 8 0 0 0 -8-8h-256a8 8 0 0 0 -8 8v32a8 8 0 0 0 8 8zm8-32h240v16h-240z" fill="url(#linear-gradient-4)"/><path d="m88 280h256a8 8 0 0 0 8-8v-32a8 8 0 0 0 -8-8h-256a8 8 0 0 0 -8 8v32a8 8 0 0 0 8 8zm8-32h240v16h-240z" fill="url(#linear-gradient-5)"/><path d="m240 296h-152a8 8 0 0 0 0 16h152a8 8 0 0 0 0-16z" fill="url(#linear-gradient-6)"/><path d="m192 320h-104a8 8 0 0 0 0 16h104a8 8 0 0 0 0-16z" fill="url(#linear-gradient-6)"/><path d="m104 360a8 8 0 0 0 0-16h-16a8 8 0 0 0 0 16z" fill="url(#linear-gradient-8)"/><path d="m136 360a8 8 0 0 0 0-16h-8a8 8 0 0 0 0 16z" fill="url(#linear-gradient-9)"/><path d="m480 384a96.127 96.127 0 0 0 -88-95.664v-208.336a8 8 0 0 0 -2.343-5.657l-64-64a8 8 0 0 0 -5.657-2.343h-272a8 8 0 0 0 -8 8v480a8 8 0 0 0 8 8h336a8 8 0 0 0 8-8v-16.336a96.127 96.127 0 0 0 88-95.664zm-152-348.687 36.687 36.687h-36.687zm-272 452.687v-464h256v56a8 8 0 0 0 8 8h56v200.336a96 96 0 0 0 0 191.328v8.336zm328-24a80 80 0 1 1 80-80 80.091 80.091 0 0 1 -80 80z" fill="url(#linear-gradient-10)"/><path d="m389.657 322.343a8 8 0 0 0 -11.314 0l-48 48a8 8 0 0 0 5.657 13.657h16v40a8 8 0 0 0 8 8h48a8 8 0 0 0 8-8v-40h16a8 8 0 0 0 5.657-13.657zm18.343 45.657a8 8 0 0 0 -8 8v40h-32v-40a8 8 0 0 0 -8-8h-4.687l28.687-28.687 28.687 28.687z" fill="url(#linear-gradient-11)"/></g></svg>