<?xml version="1.0" encoding="UTF-8" standalone="no"?>
<!-- Generator: Adobe Illustrator 19.0.0, SVG Export Plug-In . SVG Version: 6.00 Build 0)  -->

<svg
   xmlns:dc="http://purl.org/dc/elements/1.1/"
   xmlns:cc="http://creativecommons.org/ns#"
   xmlns:rdf="http://www.w3.org/1999/02/22-rdf-syntax-ns#"
   xmlns:svg="http://www.w3.org/2000/svg"
   xmlns="http://www.w3.org/2000/svg"
   xmlns:xlink="http://www.w3.org/1999/xlink"
   xmlns:sodipodi="http://sodipodi.sourceforge.net/DTD/sodipodi-0.dtd"
   xmlns:inkscape="http://www.inkscape.org/namespaces/inkscape"
   version="1.1"
   id="Capa_1"
   x="0px"
   y="0px"
   viewBox="0 0 496 496"
   style="enable-background:new 0 0 496 496;"
   xml:space="preserve"
   sodipodi:docname="ver-oficios.svg"
   inkscape:version="0.92.3 (2405546, 2018-03-11)"><metadata
   id="metadata64"><rdf:RDF><cc:Work
       rdf:about=""><dc:format>image/svg+xml</dc:format><dc:type
         rdf:resource="http://purl.org/dc/dcmitype/StillImage" /><dc:title></dc:title></cc:Work></rdf:RDF></metadata><defs
   id="defs62"><linearGradient
     gradientTransform="matrix(8,0,0,-8,378.79681,4905.7457)"
     y2="604.625"
     x2="10.335"
     y1="604.625"
     x1="-48.696999"
     gradientUnits="userSpaceOnUse"
     id="SVGID_12_"><stop
       id="stop953"
       style="stop-color:#4761AC"
       offset="0" /><stop
       id="stop955"
       style="stop-color:#54C2EF"
       offset="1" /></linearGradient><linearGradient
     gradientTransform="matrix(8,0,0,-8,263.0002,4869)"
     y2="597.625"
     x2="10.335"
     y1="597.625"
     x1="-48.696999"
     gradientUnits="userSpaceOnUse"
     id="SVGID_10_"><stop
       id="stop939"
       style="stop-color:#4761AC"
       offset="0" /><stop
       id="stop941"
       style="stop-color:#54C2EF"
       offset="1" /></linearGradient><linearGradient
     gradientTransform="matrix(8,0,0,-8,263.0002,4869)"
     y2="591.625"
     x2="10.335"
     y1="591.625"
     x1="-48.696999"
     gradientUnits="userSpaceOnUse"
     id="SVGID_8_"><stop
       id="stop925"
       style="stop-color:#4761AC"
       offset="0" /><stop
       id="stop927"
       style="stop-color:#54C2EF"
       offset="1" /></linearGradient><linearGradient
     gradientTransform="matrix(8,0,0,-8,263.0002,4869)"
     y2="585.625"
     x2="10.335"
     y1="585.625"
     x1="-48.696999"
     gradientUnits="userSpaceOnUse"
     id="SVGID_6_"><stop
       id="stop911"
       style="stop-color:#4761AC"
       offset="0" /><stop
       id="stop913"
       style="stop-color:#54C2EF"
       offset="1" /></linearGradient><linearGradient
     gradientTransform="matrix(8,0,0,-8,263.0002,4869)"
     y2="579.625"
     x2="10.335"
     y1="579.625"
     x1="-48.696999"
     gradientUnits="userSpaceOnUse"
     id="SVGID_4_"><stop
       id="stop897"
       style="stop-color:#4761AC"
       offset="0" /><stop
       id="stop899"
       style="stop-color:#54C2EF"
       offset="1" /></linearGradient><linearGradient
     id="SVGID_1_-6"
     gradientUnits="userSpaceOnUse"
     x1="-48.696999"
     y1="573.625"
     x2="10.335"
     y2="573.625"
     gradientTransform="matrix(8,0,0,-8,399.0002,4941)"><stop
       offset="0"
       style="stop-color:#4761AC"
       id="stop874" /><stop
       offset="1"
       style="stop-color:#54C2EF"
       id="stop876" /></linearGradient><linearGradient
     inkscape:collect="always"
     xlink:href="#SVGID_4_"
     id="linearGradient1741"
     gradientUnits="userSpaceOnUse"
     gradientTransform="matrix(8,0,0,-8,370.39004,4916.2543)"
     x1="-48.696999"
     y1="579.625"
     x2="10.335"
     y2="579.625" /><linearGradient
     inkscape:collect="always"
     xlink:href="#SVGID_4_"
     id="linearGradient1743"
     gradientUnits="userSpaceOnUse"
     gradientTransform="matrix(8,0,0,-8,370.39004,4916.2543)"
     x1="-48.696999"
     y1="579.625"
     x2="10.335"
     y2="579.625" /><linearGradient
     inkscape:collect="always"
     xlink:href="#SVGID_6_"
     id="linearGradient1745"
     gradientUnits="userSpaceOnUse"
     gradientTransform="matrix(8,0,0,-8,370.39004,4916.2543)"
     x1="-48.696999"
     y1="585.625"
     x2="10.335"
     y2="585.625" /><linearGradient
     inkscape:collect="always"
     xlink:href="#SVGID_6_"
     id="linearGradient1747"
     gradientUnits="userSpaceOnUse"
     gradientTransform="matrix(8,0,0,-8,370.39004,4916.2543)"
     x1="-48.696999"
     y1="585.625"
     x2="10.335"
     y2="585.625" /><linearGradient
     inkscape:collect="always"
     xlink:href="#SVGID_8_"
     id="linearGradient1749"
     gradientUnits="userSpaceOnUse"
     gradientTransform="matrix(8,0,0,-8,370.39004,4916.2543)"
     x1="-48.696999"
     y1="591.625"
     x2="10.335"
     y2="591.625" /><linearGradient
     inkscape:collect="always"
     xlink:href="#SVGID_8_"
     id="linearGradient1751"
     gradientUnits="userSpaceOnUse"
     gradientTransform="matrix(8,0,0,-8,370.39004,4916.2543)"
     x1="-48.696999"
     y1="591.625"
     x2="10.335"
     y2="591.625" /><linearGradient
     inkscape:collect="always"
     xlink:href="#SVGID_10_"
     id="linearGradient1753"
     gradientUnits="userSpaceOnUse"
     gradientTransform="matrix(8,0,0,-8,370.39004,4916.2543)"
     x1="-48.696999"
     y1="597.625"
     x2="10.335"
     y2="597.625" /><linearGradient
     inkscape:collect="always"
     xlink:href="#SVGID_10_"
     id="linearGradient1755"
     gradientUnits="userSpaceOnUse"
     gradientTransform="matrix(8,0,0,-8,370.39004,4916.2543)"
     x1="-48.696999"
     y1="597.625"
     x2="10.335"
     y2="597.625" /><linearGradient
     inkscape:collect="always"
     xlink:href="#SVGID_1_-6"
     id="linearGradient1757"
     gradientUnits="userSpaceOnUse"
     gradientTransform="matrix(8,0,0,-8,370.39003,4916.2542)"
     x1="-48.696999"
     y1="573.625"
     x2="10.335"
     y2="573.625" /><linearGradient
     inkscape:collect="always"
     xlink:href="#SVGID_1_-6"
     id="linearGradient1759"
     gradientUnits="userSpaceOnUse"
     gradientTransform="matrix(3.5541069,0,0,-8,250.90654,4916.2542)"
     x1="-48.696999"
     y1="573.625"
     x2="10.335"
     y2="573.625" /><linearGradient
     gradientTransform="matrix(8,0,0,-8,399.0002,4941)"
     y2="573.625"
     x2="10.335"
     y1="573.625"
     x1="-48.696999"
     gradientUnits="userSpaceOnUse"
     id="linearGradient1630"><stop
       id="stop1626"
       style="stop-color:#4761AC"
       offset="0" /><stop
       id="stop1628"
       style="stop-color:#54C2EF"
       offset="1" /></linearGradient><linearGradient
     gradientTransform="matrix(8,0,0,-8,399.0002,4941)"
     y2="573.625"
     x2="10.335"
     y1="573.625"
     x1="-48.696999"
     gradientUnits="userSpaceOnUse"
     id="linearGradient1637"><stop
       id="stop1633"
       style="stop-color:#4761AC"
       offset="0" /><stop
       id="stop1635"
       style="stop-color:#54C2EF"
       offset="1" /></linearGradient></defs><sodipodi:namedview
   pagecolor="#ffffff"
   bordercolor="#666666"
   borderopacity="1"
   objecttolerance="10"
   gridtolerance="10"
   guidetolerance="10"
   inkscape:pageopacity="0"
   inkscape:pageshadow="2"
   inkscape:window-width="1299"
   inkscape:window-height="713"
   id="namedview60"
   showgrid="false"
   inkscape:zoom="0.47580645"
   inkscape:cx="211.22034"
   inkscape:cy="248"
   inkscape:window-x="67"
   inkscape:window-y="27"
   inkscape:window-maximized="1"
   inkscape:current-layer="Capa_1" />
<linearGradient
   id="SVGID_1_"
   gradientUnits="userSpaceOnUse"
   x1="-51.319"
   y1="572.681"
   x2="11.837"
   y2="635.837"
   gradientTransform="matrix(8 0 0 -8 398.9999 5013)">
	<stop
   offset="0"
   style="stop-color:#003F8A"
   id="stop2" />
	<stop
   offset="0.518"
   style="stop-color:#00D7DF"
   id="stop4" />
	<stop
   offset="1"
   style="stop-color:#006DF0"
   id="stop6" />
</linearGradient>
<path
   style="fill:url(#SVGID_1_);"
   d="M88,496h168c4.418,0,8-3.582,8-8s-3.582-8-8-8H96V16h224v72c0,4.418,3.582,8,8,8h72v240  c0,4.418,3.582,8,8,8s8-3.582,8-8V88.4c-0.018-0.223-0.047-0.444-0.088-0.664c-0.036-2.019-0.843-3.948-2.256-5.392l-79.904-80  c-0.221-0.164-0.451-0.316-0.688-0.456c-0.504-0.433-1.06-0.802-1.656-1.096c-0.282-0.117-0.571-0.218-0.864-0.304  c-0.663-0.231-1.355-0.368-2.056-0.408C328.32,0.088,328.168,0,328,0H88c-4.418,0-8,3.582-8,8v480C80,492.418,83.582,496,88,496  L88,496z M336,27.32L388.368,80H336V27.32z"
   id="path9" />
<linearGradient
   id="SVGID_2_"
   gradientUnits="userSpaceOnUse"
   x1="-31.6584"
   y1="553.0184"
   x2="31.5016"
   y2="616.1774"
   gradientTransform="matrix(8.820072,0,0,-8.8206624,416.13107,5483.9125)">
	<stop
   offset="0"
   style="stop-color:#003F8A"
   id="stop11" />
	<stop
   offset="0.518"
   style="stop-color:#00D7DF"
   id="stop13" />
	<stop
   offset="1"
   style="stop-color:#006DF0"
   id="stop15" />
</linearGradient>
<path
   style="fill:url(#SVGID_2_);stroke-width:1.10254586"
   d="m 311.39281,309.49154 c -43.84022,-0.0717 -79.43914,35.41165 -79.5108,79.25586 -0.0717,43.8431 35.40928,79.4444 79.2506,79.51607 18.08336,0.0298 35.6353,-6.11603 49.74962,-17.42081 l 36.88554,36.88801 c 3.50377,3.38493 9.08688,3.2879 12.47158,-0.21611 3.30201,-3.41801 3.30201,-8.8383 0,-12.25631 L 373.35381,438.37024 C 400.74013,404.2023 395.24302,354.30051 361.07737,326.91345 346.9829,315.61529 329.45521,309.46949 311.39281,309.49154 Z m 0,141.1306 c -34.09846,0 -61.74056,-27.64396 -61.74056,-61.74464 0,-34.10068 27.6421,-61.74463 61.74056,-61.74463 34.09839,0 61.7405,27.64395 61.7405,61.74463 -0.0386,34.08415 -27.65864,61.70605 -61.7405,61.74464 z"
   id="path18"
   inkscape:connector-curvature="0" />
<linearGradient
   id="SVGID_3_"
   gradientUnits="userSpaceOnUse"
   x1="-41.5671"
   y1="562.9332"
   x2="21.5869"
   y2="626.0851"
   gradientTransform="matrix(8 0 0 -8 398.9999 5013)">
	<stop
   offset="0"
   style="stop-color:#003F8A"
   id="stop20" />
	<stop
   offset="0.518"
   style="stop-color:#00D7DF"
   id="stop22" />
	<stop
   offset="1"
   style="stop-color:#006DF0"
   id="stop24" />
</linearGradient>
<path
   style="fill:url(#SVGID_3_);"
   d="M120,416c-4.418,0-8,3.582-8,8v32c0,4.418,3.582,8,8,8h32c4.418,0,8-3.582,8-8s-3.582-8-8-8  h-8l-16-16v-8C128,419.582,124.418,416,120,416z"
   id="path27" />
<g
   id="g29">
</g>
<g
   id="g31">
</g>
<g
   id="g33">
</g>
<g
   id="g35">
</g>
<g
   id="g37">
</g>
<g
   id="g39">
</g>
<g
   id="g41">
</g>
<g
   id="g43">
</g>
<g
   id="g45">
</g>
<g
   id="g47">
</g>
<g
   id="g49">
</g>
<g
   id="g51">
</g>
<g
   id="g53">
</g>
<g
   id="g55">
</g>
<g
   id="g57">
</g>
<path
   id="path879"
   d="m 115.38984,335.25424 h 15.99999 c 4.418,0 8,-3.582 8,-8 0,-4.418 -3.582,-8 -8,-8 h -15.99999 c -4.418,0 -8,3.582 -8,8 0,4.418 3.582,8 8,8 z"
   style="fill:url(#linearGradient1757)"
   inkscape:connector-curvature="0" /><path
   id="path886"
   d="m 244.2425,319.25424 h -85.29856 c -1.96276,0 -3.55411,3.582 -3.55411,8 0,4.418 1.59135,8 3.55411,8 h 85.29856 c 1.96276,0 3.55411,-3.582 3.55411,-8 0,-4.418 -1.59135,-8 -3.55411,-8 z"
   style="fill:url(#linearGradient1759);stroke-width:0.66653085"
   inkscape:connector-curvature="0" /><path
   inkscape:connector-curvature="0"
   id="path895"
   d="m 115.38984,287.25424 h 16 c 4.418,0 8,-3.582 8,-8 0,-4.418 -3.582,-8 -8,-8 h -16 c -4.418,0 -8,3.582 -8,8 0,4.418 3.582,8 8,8 z"
   style="fill:url(#linearGradient1741)" /><path
   inkscape:connector-curvature="0"
   id="path902"
   d="m 355.38984,271.25424 h -192 c -4.418,0 -8,3.582 -8,8 0,4.418 3.582,8 8,8 h 192 c 4.418,0 8,-3.582 8,-8 0,-4.418 -3.582,-8 -8,-8 z"
   style="fill:url(#linearGradient1743)" /><path
   inkscape:connector-curvature="0"
   id="path909"
   d="m 115.38984,239.25424 h 16 c 4.418,0 8,-3.582 8,-8 0,-4.418 -3.582,-8 -8,-8 h -16 c -4.418,0 -8,3.582 -8,8 0,4.418 3.582,8 8,8 z"
   style="fill:url(#linearGradient1745)" /><path
   inkscape:connector-curvature="0"
   id="path916"
   d="m 355.38984,223.25424 h -192 c -4.418,0 -8,3.582 -8,8 0,4.418 3.582,8 8,8 h 192 c 4.418,0 8,-3.582 8,-8 0,-4.418 -3.582,-8 -8,-8 z"
   style="fill:url(#linearGradient1747)" /><path
   inkscape:connector-curvature="0"
   id="path923"
   d="m 115.38984,191.25424 h 16 c 4.418,0 8,-3.582 8,-8 0,-4.418 -3.582,-8 -8,-8 h -16 c -4.418,0 -8,3.582 -8,8 0,4.418 3.582,8 8,8 z"
   style="fill:url(#linearGradient1749)" /><path
   inkscape:connector-curvature="0"
   id="path930"
   d="m 355.38984,175.25424 h -192 c -4.418,0 -8,3.582 -8,8 0,4.418 3.582,8 8,8 h 192 c 4.418,0 8,-3.582 8,-8 0,-4.418 -3.582,-8 -8,-8 z"
   style="fill:url(#linearGradient1751)" /><path
   inkscape:connector-curvature="0"
   id="path937"
   d="m 115.38984,143.25424 h 16 c 4.418,0 8,-3.582 8,-8 0,-4.418 -3.582,-8 -8,-8 h -16 c -4.418,0 -8,3.582 -8,8 0,4.418 3.582,8 8,8 z"
   style="fill:url(#linearGradient1753)" /><path
   inkscape:connector-curvature="0"
   id="path944"
   d="m 155.38984,135.25424 c 0,4.418 3.582,8 8,8 h 192 c 4.418,0 8,-3.582 8,-8 0,-4.418 -3.582,-8 -8,-8 h -192 c -4.418,0 -8,3.582 -8,8 z"
   style="fill:url(#linearGradient1755)" /><path
   inkscape:connector-curvature="0"
   id="path958"
   d="m 123.79661,100.74576 h 48 c 4.418,0 8,-3.581999 8,-7.999999 V 44.745762 c 0,-4.418 -3.582,-8 -8,-8 h -48 c -4.418,0 -8,3.582 -8,8 v 47.999999 c 0,4.418 3.582,7.999999 8,7.999999 z m 8,-47.999998 h 32 v 31.999999 h -32 z"
   style="fill:url(#SVGID_12_)" /></svg>